<svg width="2294" height="2295" viewBox="0 0 2294 2295" fill="none" xmlns="http://www.w3.org/2000/svg">
<circle cx="1147.03" cy="1147.56" r="1146.65" fill="url(#paint0_radial_127_44)"/>
<path fill-rule="evenodd" clip-rule="evenodd" d="M1118.86 465.343C1118.86 448.594 1103.77 435.886 1087.27 438.736L592.238 524.236C582.833 525.861 574.984 532.33 571.594 541.251L486.059 766.342C480.386 781.27 488.839 797.834 504.257 801.998L1084.82 958.813C1101.98 963.449 1118.86 950.523 1118.86 932.748V465.343ZM1020.89 668.349C1020.89 651.664 1005.91 638.973 989.449 641.716L747.121 682.104C737.816 683.655 729.995 689.95 726.491 698.709L710.847 737.82C705.017 752.393 712.801 768.849 727.765 773.587L985.736 855.278C1003.14 860.79 1020.89 847.796 1020.89 829.538V668.349Z" fill="#6574FF"/>
<path fill-rule="evenodd" clip-rule="evenodd" d="M1147.03 465.343C1147.03 448.594 1162.12 435.886 1178.62 438.736L1673.65 524.236C1683.06 525.861 1690.91 532.33 1694.3 541.251L1779.83 766.342C1785.51 781.27 1777.05 797.834 1761.63 801.998L1181.07 958.813C1163.91 963.449 1147.03 950.523 1147.03 932.748V465.343ZM1228.96 668.349C1228.96 651.664 1243.95 638.973 1260.4 641.716L1502.73 682.104C1512.03 683.655 1519.86 689.95 1523.36 698.709L1539 737.82C1544.83 752.393 1537.05 768.849 1522.09 773.587L1264.11 855.278C1246.71 860.79 1228.96 847.796 1228.96 829.538V668.349Z" fill="#A32FFF"/>
<path fill-rule="evenodd" clip-rule="evenodd" d="M852.141 974.583C851.579 962.052 842.461 951.559 830.131 949.254L516.521 890.609C497.079 886.974 480.456 904.785 485.423 923.93L727.478 1856.85C729.916 1866.24 737.211 1873.61 746.584 1876.13L1084.12 1967.14C1101.28 1971.77 1118.15 1958.84 1118.15 1941.07V1025.53C1118.15 1012.53 1108.89 1001.38 1096.11 998.991L1052.14 990.769C1035.53 987.662 1020.18 1000.41 1020.18 1017.31V1811.23C1020.18 1830.21 1001.11 1843.26 983.417 1836.4L905.592 1806.23C895.612 1802.36 888.86 1792.95 888.38 1782.26L852.141 974.583Z" fill="#6574FF"/>
<path fill-rule="evenodd" clip-rule="evenodd" d="M1146.31 1025.53C1146.31 1012.53 1155.58 1001.38 1168.35 998.991L1747.94 890.609C1767.39 886.974 1784.01 904.786 1779.04 923.93L1536.99 1856.85C1534.55 1866.24 1527.25 1873.61 1517.88 1876.13L1391.15 1910.3C1373.37 1915.1 1356.11 1901.08 1357.16 1882.7L1402.03 1097.04C1403.04 1079.43 1387.16 1065.6 1369.86 1069.01L1249.34 1092.75C1236.68 1095.24 1227.56 1106.34 1227.56 1119.24V1933.73C1227.56 1945.93 1219.37 1956.62 1207.58 1959.8L1180.34 1967.14C1163.19 1971.77 1146.31 1958.84 1146.31 1941.07V1025.53Z" fill="#6574FF"/>
<defs>
<radialGradient id="paint0_radial_127_44" cx="0" cy="0" r="1" gradientUnits="userSpaceOnUse" gradientTransform="translate(1147.03 1147.56) rotate(90) scale(1146.65)">
<stop/>
<stop offset="1" stop-color="#262626"/>
</radialGradient>
</defs>
</svg>
