<svg width="1300" height="1546" viewBox="0 0 1300 1546" fill="none" xmlns="http://www.w3.org/2000/svg">
<path fill-rule="evenodd" clip-rule="evenodd" d="M636.86 42.3182C636.86 25.5694 621.769 12.8615 605.265 15.7121L110.238 101.212C100.833 102.836 92.9841 109.305 89.5938 118.227L4.05863 343.317C-1.61433 358.246 6.83944 374.81 22.2571 378.974L602.82 535.789C619.981 540.424 636.86 527.499 636.86 509.723V42.3182ZM538.887 245.324C538.887 228.64 523.906 215.949 507.449 218.692L265.121 259.08C255.816 260.631 247.995 266.926 244.491 275.685L228.847 314.795C223.017 329.369 230.801 345.824 245.765 350.563L503.736 432.254C521.143 437.766 538.887 424.772 538.887 406.514V245.324Z" fill="white"/>
<path fill-rule="evenodd" clip-rule="evenodd" d="M665.027 42.3181C665.027 25.5695 680.118 12.8615 696.623 15.7121L1191.65 101.212C1201.06 102.836 1208.91 109.305 1212.3 118.227L1297.83 343.317C1303.51 358.246 1295.05 374.81 1279.63 378.974L699.068 535.789C681.907 540.424 665.027 527.499 665.027 509.723V42.3181ZM746.964 245.324C746.964 228.64 761.945 215.949 778.402 218.692L1020.73 259.08C1030.03 260.631 1037.86 266.926 1041.36 275.685L1057 314.795C1062.83 329.369 1055.05 345.824 1040.09 350.563L782.115 432.254C764.708 437.766 746.964 424.772 746.964 406.514V245.324Z" fill="#4C2FFF"/>
<path fill-rule="evenodd" clip-rule="evenodd" d="M370.141 551.559C369.579 539.028 360.461 528.535 348.131 526.229L34.5208 467.585C15.0794 463.949 -1.54402 481.761 3.4232 500.905L245.478 1433.82C247.916 1443.22 255.211 1450.58 264.584 1453.11L602.119 1544.12C619.277 1548.74 636.148 1535.82 636.148 1518.05V602.507C636.148 589.509 626.887 578.356 614.111 575.967L570.141 567.744C553.529 564.638 538.178 577.384 538.178 594.284V1388.2C538.178 1407.18 519.113 1420.24 501.417 1413.38L423.592 1383.2C413.612 1379.33 406.86 1369.93 406.38 1359.24L370.141 551.559Z" fill="white"/>
<path fill-rule="evenodd" clip-rule="evenodd" d="M664.314 602.507C664.314 589.509 673.575 578.356 686.352 575.967L1265.94 467.585C1285.39 463.949 1302.01 481.761 1297.04 500.905L1054.99 1433.82C1052.55 1443.22 1045.25 1450.58 1035.88 1453.11L909.146 1487.28C891.367 1492.07 874.111 1478.06 875.161 1459.67L920.03 674.014C921.036 656.404 905.162 642.575 887.856 645.984L767.337 669.722C754.681 672.215 745.555 683.313 745.555 696.213V1510.7C745.555 1522.91 737.368 1533.6 725.584 1536.77L698.343 1544.12C681.185 1548.74 664.314 1535.82 664.314 1518.05V602.507Z" fill="white"/>
</svg>
